# xmcd
#
# Track frame offsets: 
#        150
#        12491
#        29078
#        47171
#        62229
#        75843
#        96751
#        114828
#        136252
#        156938
#        177867
#        194744
#
# Disc length: 2791 seconds
#
# Revision: 0
# Processed by: cddbd v1.5.1PL2 Copyright (c) Steve Scherf et al.
# Submitted via: ExactAudioCopy v0.95b3
#
DISCID=9d0ae50c
DTITLE=The PearRatz - Rat Now
DYEAR=2006
DGENRE=Country
TTITLE0=Talkin Myself Outta Killin You
TTITLE1=Sing Jolie Again
TTITLE2=Drive South 
TTITLE3=Paint Me A Picture 
TTITLE4=Imagine
TTITLE5=River Of Pain 
TTITLE6=Feel Allright 
TTITLE7=Burn This Bridge Down For You 
TTITLE8=Bottom Of The Bottle 
TTITLE9=Just South Of The Nueces 
TTITLE10=The Way I Feel For You 
TTITLE11=Friends
EXTD=
EXTT0=
EXTT1=
EXTT2=
EXTT3=
EXTT4=
EXTT5=
EXTT6=
EXTT7=
EXTT8=
EXTT9=
EXTT10=
EXTT11=
PLAYORDER=
